<?xml version="1.0" standalone="no"?>
<!DOCTYPE svg PUBLIC "-//W3C//DTD SVG 20010904//EN"
 "http://www.w3.org/TR/2001/REC-SVG-20010904/DTD/svg10.dtd">
<svg version="1.0" xmlns="http://www.w3.org/2000/svg"
 width="225.000000pt" height="225.000000pt" viewBox="0 0 225.000000 225.000000"
 preserveAspectRatio="xMidYMid meet">
<metadata>
Created by potrace 1.15, written by Peter Selinger 2001-2017
</metadata>
<g transform="translate(0.000000,225.000000) scale(0.100000,-0.100000)"
fill="#000000" stroke="none">
<path d="M729 2224 c-11 -13 -7 -33 24 -128 20 -61 37 -119 37 -128 0 -27 -94
-161 -151 -214 -63 -59 -117 -92 -218 -134 l-73 -30 -99 55 c-55 30 -107 55
-117 55 -24 0 -42 -19 -42 -46 0 -19 19 -33 104 -79 l105 -56 22 -95 c18 -78
21 -114 16 -192 -6 -102 -15 -135 -75 -273 l-37 -86 -96 -32 c-104 -34 -122
-47 -117 -83 5 -35 48 -34 167 7 l104 35 83 -55 c129 -86 211 -192 269 -346
l17 -46 -56 -103 c-58 -106 -66 -139 -41 -160 29 -24 54 0 111 105 l57 103 71
17 c39 10 112 20 161 22 111 6 191 -11 321 -68 l93 -41 32 -97 c17 -53 36
-102 42 -109 13 -17 52 -15 68 4 11 13 7 33 -24 128 -20 61 -37 118 -37 124 0
30 115 185 172 233 60 50 160 106 231 128 36 12 41 11 141 -43 118 -63 152
-70 162 -30 8 33 -1 42 -111 102 l-90 50 -18 68 c-11 38 -21 114 -24 169 -6
122 9 193 68 327 l43 95 103 34 c106 34 121 47 108 89 -9 28 -29 26 -160 -16
l-114 -35 -79 50 c-127 82 -201 172 -262 318 l-31 74 56 103 c60 112 66 139
35 156 -32 17 -52 -2 -100 -90 -24 -45 -49 -88 -55 -96 -16 -23 -168 -53 -264
-54 -101 0 -174 18 -300 74 l-96 44 -26 84 c-15 47 -32 94 -38 106 -14 26 -53
29 -72 6z m398 -390 c92 -17 189 -18 271 0 34 7 62 11 62 8 0 -2 -18 -37 -40
-78 l-41 -73 -56 -12 c-95 -19 -206 -7 -290 31 l-72 32 -26 77 c-14 42 -25 79
-25 83 0 4 32 -6 71 -23 39 -17 105 -37 146 -45z m-247 -142 c0 -20 -48 -90
-91 -132 -44 -43 -150 -100 -183 -100 -12 1 -51 18 -88 38 l-66 38 76 36 c101
48 184 116 252 207 l54 73 23 -74 c12 -40 23 -79 23 -86z m740 -66 c41 -61
120 -139 181 -180 l51 -34 -81 -27 -81 -27 -49 32 c-70 44 -128 111 -162 185
l-28 63 41 76 42 77 27 -60 c15 -33 41 -80 59 -105z m-388 -44 c48 1 88 2 88
1 0 -1 -16 -31 -35 -67 -45 -81 -87 -95 -188 -60 -44 15 -47 18 -68 82 -12 37
-24 72 -26 78 -2 6 29 0 69 -14 59 -20 87 -23 160 -20z m-283 -82 l22 -69 -22
-30 c-12 -16 -42 -40 -66 -53 l-43 -23 -65 34 c-36 19 -65 37 -65 40 0 4 19
15 42 26 24 11 70 48 103 81 33 34 62 62 66 63 3 0 15 -30 28 -69z m491 -36
c23 -36 64 -82 91 -104 l49 -38 -76 -26 -75 -25 -44 42 c-60 58 -64 81 -26
156 17 33 33 61 35 61 2 0 22 -30 46 -66z m-953 -47 l71 -38 12 -66 c19 -99 9
-185 -32 -273 l-35 -75 -82 -27 c-50 -16 -81 -22 -78 -15 85 201 103 315 73
470 -7 37 -10 66 -7 65 3 -2 38 -20 78 -41z m1414 -99 c-5 -13 -18 -44 -30
-70 -48 -111 -62 -270 -37 -400 7 -38 11 -68 9 -68 -2 0 -37 18 -77 40 -80 44
-76 38 -96 157 -12 72 4 163 43 243 l32 64 80 27 c44 15 81 28 82 28 1 1 -1
-9 -6 -21z m-1095 -115 c4 -31 1 -58 -12 -95 -19 -51 -20 -52 -88 -75 -39 -12
-73 -23 -77 -23 -4 0 2 24 14 53 16 40 21 75 21 154 l1 102 67 -37 c64 -34 68
-38 74 -79z m810 22 c-28 -75 -38 -135 -34 -217 2 -48 3 -88 1 -88 -1 0 -31
16 -67 35 -69 38 -76 50 -75 125 0 75 26 111 100 136 78 27 83 28 75 9z m-760
-287 c20 -18 43 -46 50 -63 11 -28 9 -36 -23 -98 l-36 -68 -31 52 c-16 29 -56
79 -88 110 l-58 57 57 20 c78 28 87 27 129 -10z m609 -54 l66 -37 -48 -27
c-26 -15 -74 -55 -107 -89 -32 -34 -59 -61 -61 -59 -1 2 -12 34 -25 71 l-22
69 29 35 c22 28 84 73 100 73 1 0 32 -16 68 -36z m-864 -25 c68 -43 127 -111
160 -185 33 -72 34 -64 -29 -172 l-25 -44 -32 69 c-50 106 -115 181 -254 291
l-25 19 75 26 c41 14 76 26 78 26 2 1 26 -13 52 -30z m542 -65 c45 -15 46 -17
71 -91 l25 -75 -22 6 c-113 33 -147 38 -219 34 l-77 -5 37 68 c23 43 45 70 57
72 44 9 84 6 128 -9z m564 -41 c40 -21 73 -40 72 -43 0 -3 -35 -22 -78 -42
-88 -43 -197 -136 -252 -217 -19 -28 -37 -51 -40 -51 -3 0 -16 34 -29 76 l-24
75 20 36 c36 68 102 131 176 168 39 19 73 35 77 35 3 0 39 -17 78 -37z m-500
-212 l72 -33 21 -69 c11 -37 23 -75 26 -83 4 -11 -14 -6 -66 15 -148 63 -328
75 -463 33 -16 -5 -15 1 9 48 59 118 81 129 239 124 77 -2 101 -7 162 -35z"/>
</g>
</svg>
