<?xml version="1.0" standalone="no"?>
<!DOCTYPE svg PUBLIC "-//W3C//DTD SVG 20010904//EN"
 "http://www.w3.org/TR/2001/REC-SVG-20010904/DTD/svg10.dtd">
<svg version="1.0" xmlns="http://www.w3.org/2000/svg"
 width="200.000000pt" height="200.000000pt" viewBox="0 0 200.000000 200.000000"
 preserveAspectRatio="xMidYMid meet">
<metadata>
Created by potrace 1.15, written by Peter Selinger 2001-2017
</metadata>
<g transform="translate(0.000000,200.000000) scale(0.100000,-0.100000)"
fill="#000000" stroke="none">
<path d="M1015 1748 c-78 -87 -124 -183 -132 -276 -4 -47 -10 -71 -17 -68 -6
3 -42 15 -80 27 -87 28 -221 23 -306 -10 -135 -53 -258 -185 -310 -332 -31
-88 -39 -259 -16 -349 64 -256 260 -420 500 -420 62 0 93 -5 124 -20 63 -31
149 -50 222 -50 73 0 159 19 222 50 31 15 62 20 124 20 238 0 435 163 499 415
31 121 11 315 -43 422 -60 117 -168 218 -283 264 -112 45 -278 36 -390 -22
l-37 -18 -6 31 c-21 103 1 199 64 278 36 45 38 69 7 98 -43 40 -78 30 -142
-40z"/>
</g>
</svg>
